<mxfile host="app.diagrams.net" agent="Mozilla/5.0 (Windows NT 10.0; Win64; x64; rv:135.0) Gecko/20100101 Firefox/135.0" version="26.0.16">
  <diagram name="Page-1" id="e3a06f82-3646-2815-327d-82caf3d4e204">
    <mxGraphModel dx="1647" dy="905" grid="1" gridSize="10" guides="1" tooltips="1" connect="1" arrows="1" fold="1" page="1" pageScale="1.5" pageWidth="1169" pageHeight="826" background="none" math="0" shadow="0">
      <root>
        <mxCell id="0" style=";html=1;" />
        <mxCell id="1" style=";html=1;" parent="0" />
        <mxCell id="6a7d8f32e03d9370-61" value="Outside Networks" style="whiteSpace=wrap;html=1;fillColor=#f8cecc;fontSize=14;strokeColor=none;verticalAlign=top;" parent="1" vertex="1">
          <mxGeometry x="877" y="133" width="130" height="677" as="geometry" />
        </mxCell>
        <mxCell id="6a7d8f32e03d9370-60" value="Cloudflare VPN" style="whiteSpace=wrap;html=1;fillColor=#d5e8d4;fontSize=14;strokeColor=none;verticalAlign=top;" parent="1" vertex="1">
          <mxGeometry x="770" y="133" width="100" height="677" as="geometry" />
        </mxCell>
        <mxCell id="6a7d8f32e03d9370-59" value="Intranet" style="whiteSpace=wrap;html=1;fillColor=#EDEDED;fontSize=14;strokeColor=none;verticalAlign=top;" parent="1" vertex="1">
          <mxGeometry x="480" y="133" width="280" height="677" as="geometry" />
        </mxCell>
        <mxCell id="6a7d8f32e03d9370-57" value="Prostředi kurníku" style="whiteSpace=wrap;html=1;fillColor=#FFD470;gradientColor=none;fontSize=14;strokeColor=none;verticalAlign=top;" parent="1" vertex="1">
          <mxGeometry x="270" y="133" width="200" height="680" as="geometry" />
        </mxCell>
        <mxCell id="TYWG_mC_pcNetwADDeM8-35" style="edgeStyle=orthogonalEdgeStyle;shape=connector;rounded=0;orthogonalLoop=1;jettySize=auto;html=1;strokeColor=default;align=center;verticalAlign=middle;fontFamily=Helvetica;fontSize=11;fontColor=default;labelBackgroundColor=default;endArrow=classic;endFill=1;" parent="1" source="6a7d8f32e03d9370-1" target="TYWG_mC_pcNetwADDeM8-30" edge="1">
          <mxGeometry relative="1" as="geometry" />
        </mxCell>
        <mxCell id="6a7d8f32e03d9370-1" value="Client" style="verticalLabelPosition=bottom;aspect=fixed;html=1;verticalAlign=top;strokeColor=none;shape=mxgraph.citrix.laptop_2;fillColor=#66B2FF;gradientColor=#0066CC;fontSize=14;" parent="1" vertex="1">
          <mxGeometry x="900" y="320.28999999999996" width="77" height="57.42" as="geometry" />
        </mxCell>
        <mxCell id="TYWG_mC_pcNetwADDeM8-34" style="edgeStyle=orthogonalEdgeStyle;shape=connector;rounded=0;orthogonalLoop=1;jettySize=auto;html=1;strokeColor=default;align=center;verticalAlign=middle;fontFamily=Helvetica;fontSize=11;fontColor=default;labelBackgroundColor=default;endArrow=classic;endFill=1;" parent="1" source="6a7d8f32e03d9370-6" target="TYWG_mC_pcNetwADDeM8-30" edge="1">
          <mxGeometry relative="1" as="geometry" />
        </mxCell>
        <mxCell id="6a7d8f32e03d9370-6" value="&lt;div&gt;Mobile Client&lt;/div&gt;&lt;div&gt;&lt;br&gt;&lt;/div&gt;" style="verticalLabelPosition=bottom;aspect=fixed;html=1;verticalAlign=top;strokeColor=none;shape=mxgraph.citrix.pda;fillColor=#66B2FF;gradientColor=#0066CC;fontSize=14;" parent="1" vertex="1">
          <mxGeometry x="927" y="210" width="30" height="61" as="geometry" />
        </mxCell>
        <mxCell id="TYWG_mC_pcNetwADDeM8-33" style="edgeStyle=orthogonalEdgeStyle;shape=connector;rounded=0;orthogonalLoop=1;jettySize=auto;html=1;strokeColor=default;align=center;verticalAlign=middle;fontFamily=Helvetica;fontSize=11;fontColor=default;labelBackgroundColor=default;endArrow=classic;endFill=1;" parent="1" source="6a7d8f32e03d9370-13" target="6a7d8f32e03d9370-14" edge="1">
          <mxGeometry relative="1" as="geometry" />
        </mxCell>
        <mxCell id="6a7d8f32e03d9370-13" value="" style="verticalLabelPosition=bottom;aspect=fixed;html=1;verticalAlign=top;strokeColor=none;shape=mxgraph.citrix.router;fillColor=#66B2FF;gradientColor=#0066CC;fontSize=14;" parent="1" vertex="1">
          <mxGeometry x="780" y="437.5" width="70.82" height="47" as="geometry" />
        </mxCell>
        <mxCell id="TYWG_mC_pcNetwADDeM8-32" style="edgeStyle=orthogonalEdgeStyle;shape=connector;rounded=0;orthogonalLoop=1;jettySize=auto;html=1;strokeColor=default;align=center;verticalAlign=middle;fontFamily=Helvetica;fontSize=11;fontColor=default;labelBackgroundColor=default;endArrow=classic;endFill=1;" parent="1" source="6a7d8f32e03d9370-14" target="TYWG_mC_pcNetwADDeM8-24" edge="1">
          <mxGeometry relative="1" as="geometry" />
        </mxCell>
        <mxCell id="6a7d8f32e03d9370-14" value="Intel NUC 11" style="verticalLabelPosition=bottom;aspect=fixed;html=1;verticalAlign=top;strokeColor=none;shape=mxgraph.citrix.xenclient_synchronizer;fillColor=#CCCCCC;gradientColor=#000000;gradientDirection=south;fontSize=14;" parent="1" vertex="1">
          <mxGeometry x="639.9999999999999" y="415.5" width="76" height="91" as="geometry" />
        </mxCell>
        <mxCell id="6a7d8f32e03d9370-62" value="Komunikační vrstva" style="text;strokeColor=none;fillColor=none;html=1;fontSize=24;fontStyle=1;verticalAlign=middle;align=center;" parent="1" vertex="1">
          <mxGeometry x="270" y="70" width="740" height="40" as="geometry" />
        </mxCell>
        <mxCell id="YJprLfJIQzR9bn_zoClw-4" value="" style="sketch=0;verticalLabelPosition=bottom;sketch=0;aspect=fixed;html=1;verticalAlign=top;strokeColor=none;fillColor=#000000;align=center;outlineConnect=0;pointerEvents=1;shape=mxgraph.citrix2.linux_apps;" parent="1" vertex="1">
          <mxGeometry x="297" y="639.77" width="60" height="70.23" as="geometry" />
        </mxCell>
        <mxCell id="TYWG_mC_pcNetwADDeM8-18" style="edgeStyle=orthogonalEdgeStyle;rounded=0;orthogonalLoop=1;jettySize=auto;html=1;" parent="1" source="TYWG_mC_pcNetwADDeM8-4" target="TYWG_mC_pcNetwADDeM8-24" edge="1">
          <mxGeometry relative="1" as="geometry">
            <mxPoint x="590" y="221.94000000000005" as="targetPoint" />
          </mxGeometry>
        </mxCell>
        <mxCell id="TYWG_mC_pcNetwADDeM8-4" value="Kamera" style="image;points=[];aspect=fixed;html=1;align=center;shadow=0;dashed=0;image=img/lib/allied_telesis/security/POE_DVS_Camera.svg;labelBackgroundColor=none;" parent="1" vertex="1">
          <mxGeometry x="272" y="185.29" width="93" height="73.31" as="geometry" />
        </mxCell>
        <mxCell id="TYWG_mC_pcNetwADDeM8-22" style="edgeStyle=orthogonalEdgeStyle;rounded=0;orthogonalLoop=1;jettySize=auto;html=1;" parent="1" source="TYWG_mC_pcNetwADDeM8-7" target="TYWG_mC_pcNetwADDeM8-19" edge="1">
          <mxGeometry relative="1" as="geometry" />
        </mxCell>
        <mxCell id="TYWG_mC_pcNetwADDeM8-7" value="Senzor" style="sketch=0;outlineConnect=0;fontColor=#232F3E;gradientColor=none;fillColor=#7AA116;strokeColor=none;dashed=0;verticalLabelPosition=bottom;verticalAlign=top;align=center;html=1;fontSize=12;fontStyle=0;aspect=fixed;pointerEvents=1;shape=mxgraph.aws4.iot_thing_temperature_sensor;" parent="1" vertex="1">
          <mxGeometry x="288" y="310" width="78" height="78" as="geometry" />
        </mxCell>
        <mxCell id="TYWG_mC_pcNetwADDeM8-11" value="Světlo" style="html=1;verticalLabelPosition=bottom;align=center;labelBackgroundColor=none;verticalAlign=top;strokeWidth=2;strokeColor=#0080F0;shadow=0;dashed=0;shape=mxgraph.ios7.icons.lightbulb;" parent="1" vertex="1">
          <mxGeometry x="297" y="420" width="60" height="72" as="geometry" />
        </mxCell>
        <mxCell id="TYWG_mC_pcNetwADDeM8-23" style="edgeStyle=orthogonalEdgeStyle;rounded=0;orthogonalLoop=1;jettySize=auto;html=1;" parent="1" source="TYWG_mC_pcNetwADDeM8-12" target="TYWG_mC_pcNetwADDeM8-19" edge="1">
          <mxGeometry relative="1" as="geometry" />
        </mxCell>
        <mxCell id="TYWG_mC_pcNetwADDeM8-12" value="Dveře" style="outlineConnect=0;dashed=0;verticalLabelPosition=bottom;verticalAlign=top;align=center;html=1;shape=mxgraph.aws3.door_lock;fillColor=#5294CF;gradientColor=none;" parent="1" vertex="1">
          <mxGeometry x="288" y="520" width="79.5" height="79.5" as="geometry" />
        </mxCell>
        <mxCell id="TYWG_mC_pcNetwADDeM8-16" style="edgeStyle=orthogonalEdgeStyle;rounded=0;orthogonalLoop=1;jettySize=auto;html=1;" parent="1" source="TYWG_mC_pcNetwADDeM8-13" target="TYWG_mC_pcNetwADDeM8-14" edge="1">
          <mxGeometry relative="1" as="geometry" />
        </mxCell>
        <mxCell id="TYWG_mC_pcNetwADDeM8-13" value="&lt;div&gt;Váha&lt;/div&gt;" style="shape=image;html=1;verticalAlign=top;verticalLabelPosition=bottom;labelBackgroundColor=none;imageAspect=0;aspect=fixed;image=https://cdn1.iconfinder.com/data/icons/electronics-outline-24/24/kitchen_scale_food_scale_weighing_scale_weight_machine_weight_scale-128.png;fontColor=#000033;imageBackground=none;imageBorder=none;" parent="1" vertex="1">
          <mxGeometry x="291.75" y="710" width="70.5" height="70.5" as="geometry" />
        </mxCell>
        <mxCell id="TYWG_mC_pcNetwADDeM8-28" style="edgeStyle=orthogonalEdgeStyle;rounded=0;orthogonalLoop=1;jettySize=auto;html=1;" parent="1" source="TYWG_mC_pcNetwADDeM8-14" target="TYWG_mC_pcNetwADDeM8-25" edge="1">
          <mxGeometry relative="1" as="geometry" />
        </mxCell>
        <mxCell id="TYWG_mC_pcNetwADDeM8-14" value="&lt;div&gt;USB Hub&lt;/div&gt;&lt;div&gt;&lt;br&gt;&lt;/div&gt;" style="image;html=1;image=img/lib/clip_art/computers/USB_Hub_128x128.png;labelBackgroundColor=none;" parent="1" vertex="1">
          <mxGeometry x="506" y="705.25" width="80" height="80" as="geometry" />
        </mxCell>
        <mxCell id="TYWG_mC_pcNetwADDeM8-26" style="edgeStyle=orthogonalEdgeStyle;rounded=0;orthogonalLoop=1;jettySize=auto;html=1;" parent="1" source="TYWG_mC_pcNetwADDeM8-19" target="TYWG_mC_pcNetwADDeM8-25" edge="1">
          <mxGeometry relative="1" as="geometry" />
        </mxCell>
        <mxCell id="TYWG_mC_pcNetwADDeM8-19" value="" style="html=1;strokeWidth=1;shadow=0;dashed=0;shape=mxgraph.ios7.misc.switch;fillColor=#8F8E94;strokeColor=none;buttonText=;strokeColor2=#222222;fontColor=#222222;fontSize=8;verticalLabelPosition=bottom;verticalAlign=top;align=center;sketch=0;" parent="1" vertex="1">
          <mxGeometry x="390" y="423" width="55" height="66" as="geometry" />
        </mxCell>
        <mxCell id="TYWG_mC_pcNetwADDeM8-20" style="edgeStyle=orthogonalEdgeStyle;rounded=0;orthogonalLoop=1;jettySize=auto;html=1;entryX=0.064;entryY=0.482;entryDx=0;entryDy=0;entryPerimeter=0;" parent="1" source="TYWG_mC_pcNetwADDeM8-11" target="TYWG_mC_pcNetwADDeM8-19" edge="1">
          <mxGeometry relative="1" as="geometry" />
        </mxCell>
        <mxCell id="TYWG_mC_pcNetwADDeM8-27" style="edgeStyle=orthogonalEdgeStyle;rounded=0;orthogonalLoop=1;jettySize=auto;html=1;endArrow=classic;endFill=1;" parent="1" source="TYWG_mC_pcNetwADDeM8-24" target="TYWG_mC_pcNetwADDeM8-25" edge="1">
          <mxGeometry relative="1" as="geometry" />
        </mxCell>
        <mxCell id="TYWG_mC_pcNetwADDeM8-24" value="&lt;div&gt;Switch&lt;/div&gt;&lt;div&gt;&lt;br&gt;&lt;/div&gt;" style="verticalLabelPosition=bottom;sketch=0;aspect=fixed;html=1;verticalAlign=top;strokeColor=none;align=center;outlineConnect=0;shape=mxgraph.citrix.switch;" parent="1" vertex="1">
          <mxGeometry x="500" y="440.25" width="92" height="41.5" as="geometry" />
        </mxCell>
        <mxCell id="TYWG_mC_pcNetwADDeM8-25" value="Raspberry PI" style="verticalLabelPosition=bottom;sketch=0;aspect=fixed;html=1;verticalAlign=top;strokeColor=none;align=center;outlineConnect=0;shape=mxgraph.citrix.1u_2u_server;" parent="1" vertex="1">
          <mxGeometry x="496" y="550" width="100" height="39.1" as="geometry" />
        </mxCell>
        <mxCell id="TYWG_mC_pcNetwADDeM8-31" style="edgeStyle=orthogonalEdgeStyle;shape=connector;rounded=0;orthogonalLoop=1;jettySize=auto;html=1;strokeColor=default;align=center;verticalAlign=middle;fontFamily=Helvetica;fontSize=11;fontColor=default;labelBackgroundColor=default;endArrow=classic;endFill=1;" parent="1" source="TYWG_mC_pcNetwADDeM8-30" target="6a7d8f32e03d9370-13" edge="1">
          <mxGeometry relative="1" as="geometry" />
        </mxCell>
        <mxCell id="TYWG_mC_pcNetwADDeM8-30" value="" style="verticalLabelPosition=bottom;sketch=0;aspect=fixed;html=1;verticalAlign=top;strokeColor=none;align=center;outlineConnect=0;shape=mxgraph.citrix.firewall;fontFamily=Helvetica;fontSize=11;fontColor=default;labelBackgroundColor=default;" parent="1" vertex="1">
          <mxGeometry x="777.92" y="306.81" width="72.9" height="90.4" as="geometry" />
        </mxCell>
      </root>
    </mxGraphModel>
  </diagram>
</mxfile>
